<svg data-v-423bf9ae="" xmlns="http://www.w3.org/2000/svg" viewBox="0 0 902 183" class="iconLeft"><!----><!----><defs data-v-423bf9ae=""><linearGradient data-v-423bf9ae="" gradientTransform="rotate(25)" id="2cfda49f-36ff-45d1-a41b-4a6377d550bf" x1="0%" y1="0%" x2="100%" y2="0%"><stop data-v-423bf9ae="" offset="0%" style="stop-color: rgb(146, 132, 219); stop-opacity: 1;"></stop><stop data-v-423bf9ae="" offset="100%" style="stop-color: rgb(39, 5, 199); stop-opacity: 1;"></stop></linearGradient></defs><g data-v-423bf9ae="" id="2a31a99a-9125-4bf4-8b6b-d04615018c38" fill="url(#2cfda49f-36ff-45d1-a41b-4a6377d550bf)" transform="matrix(4.521636962890625,0,0,4.521636962890625,182.78372192382812,43.51654815673828)"><path d="M6.10 14.35L7.28 14.35L7.28 4.58L6.10 4.58L6.10 8.89L2.30 8.89L2.30 4.58L1.12 4.58L1.12 14.35L2.30 14.35L2.30 9.91L6.10 9.91ZM13.05 5.53C13.69 5.53 13.93 5.22 13.93 4.82L13.93 4.59C13.93 4.19 13.69 3.88 13.05 3.88C12.40 3.88 12.17 4.19 12.17 4.59L12.17 4.82C12.17 5.22 12.40 5.53 13.05 5.53ZM9.88 14.35L16.04 14.35L16.04 13.40L13.61 13.40L13.61 7.13L9.88 7.13L9.88 8.08L12.49 8.08L12.49 13.40L9.88 13.40ZM18.13 17.15L19.25 17.15L19.25 13.17L19.31 13.17C19.77 14.06 20.52 14.52 21.53 14.52C23.30 14.52 24.36 13.10 24.36 10.74C24.36 8.37 23.30 6.96 21.53 6.96C20.52 6.96 19.77 7.42 19.31 8.30L19.25 8.30L19.25 7.13L18.13 7.13ZM21.10 13.52C20.10 13.52 19.25 13.01 19.25 12.04L19.25 9.44C19.25 8.47 20.10 7.95 21.10 7.95C22.40 7.95 23.16 8.82 23.16 10.12L23.16 11.35C23.16 12.66 22.40 13.52 21.10 13.52ZM29.53 14.52C30.95 14.52 31.99 13.82 32.42 12.85L31.60 12.29C31.22 13.08 30.49 13.55 29.53 13.55C28.17 13.55 27.31 12.63 27.31 11.35L27.31 11.02L32.66 11.02L32.66 10.49C32.66 8.44 31.40 6.96 29.46 6.96C27.50 6.96 26.14 8.44 26.14 10.75C26.14 13.03 27.45 14.52 29.53 14.52ZM29.46 7.88C30.65 7.88 31.46 8.75 31.46 10.02L31.46 10.18L27.31 10.18L27.31 10.08C27.31 8.82 28.22 7.88 29.46 7.88ZM34.68 14.35L40.71 14.35L40.71 13.40L37.91 13.40L37.91 10.28C37.91 9.16 38.65 8.25 40.07 8.25L41.43 8.25L41.43 7.13L40.42 7.13C38.91 7.13 38.26 7.99 37.98 8.95L37.91 8.95L37.91 7.13L34.68 7.13L34.68 8.08L36.79 8.08L36.79 13.40L34.68 13.40ZM56.77 14.35L57.85 14.35L57.85 4.58L56.39 4.58L54.67 8.89L54.59 8.89L52.86 4.58L51.35 4.58L51.35 14.35L52.43 14.35L52.43 9.45L52.43 6.36L52.54 6.36L54.60 11.38L56.66 6.36L56.77 6.36L56.77 9.45ZM63 14.52C65.03 14.52 66.28 13.03 66.28 10.74C66.28 8.44 65.03 6.96 63 6.96C60.97 6.96 59.72 8.44 59.72 10.74C59.72 13.03 60.97 14.52 63 14.52ZM63 13.55C61.75 13.55 60.91 12.81 60.91 11.26L60.91 10.22C60.91 8.67 61.75 7.92 63 7.92C64.25 7.92 65.09 8.67 65.09 10.22L65.09 11.26C65.09 12.81 64.25 13.55 63 13.55ZM73.15 14.35L74.27 14.35L74.27 3.99L73.15 3.99L73.15 8.30L73.09 8.30C72.63 7.42 71.88 6.96 70.87 6.96C69.10 6.96 68.04 8.37 68.04 10.74C68.04 13.10 69.10 14.52 70.87 14.52C71.88 14.52 72.63 14.06 73.09 13.17L73.15 13.17ZM71.30 13.52C70 13.52 69.24 12.66 69.24 11.35L69.24 10.12C69.24 8.82 70 7.95 71.30 7.95C72.30 7.95 73.15 8.47 73.15 9.44L73.15 12.04C73.15 13.01 72.30 13.52 71.30 13.52ZM81.51 14.35L82.63 14.35L82.63 7.13L81.51 7.13L81.51 12.14C81.51 13.09 80.61 13.52 79.72 13.52C78.61 13.52 78.01 12.88 78.01 11.56L78.01 7.13L76.89 7.13L76.89 11.76C76.89 13.51 77.88 14.52 79.39 14.52C80.58 14.52 81.14 13.89 81.45 13.17L81.51 13.17ZM85.12 14.35L91.28 14.35L91.28 13.40L88.76 13.40L88.76 3.99L85.12 3.99L85.12 4.94L87.64 4.94L87.64 13.40L85.12 13.40ZM100.10 14.35L100.10 13.37L99.09 13.37L99.09 9.39C99.09 7.87 98.01 6.96 96.32 6.96C94.85 6.96 93.93 7.66 93.56 8.41L94.32 8.97C94.70 8.32 95.28 7.91 96.25 7.91C97.34 7.91 97.97 8.46 97.97 9.51L97.97 10.22L96.43 10.22C94.26 10.22 93.32 10.99 93.32 12.32C93.32 13.68 94.29 14.52 95.80 14.52C96.98 14.52 97.66 14 97.97 13.17L98.04 13.17C98.13 13.85 98.46 14.35 99.33 14.35ZM96.00 13.58C95.07 13.58 94.50 13.19 94.50 12.45L94.50 12.15C94.50 11.45 95.10 11.06 96.43 11.06L97.97 11.06L97.97 12.25C97.97 12.99 97.15 13.58 96.00 13.58ZM101.88 14.35L107.91 14.35L107.91 13.40L105.11 13.40L105.11 10.28C105.11 9.16 105.85 8.25 107.27 8.25L108.63 8.25L108.63 7.13L107.62 7.13C106.11 7.13 105.46 7.99 105.18 8.95L105.11 8.95L105.11 7.13L101.88 7.13L101.88 8.08L103.99 8.08L103.99 13.40L101.88 13.40ZM114.52 10.15L113.44 12.89L113.39 12.89L112.31 10.15L111.09 7.13L109.94 7.13L112.85 14.21L112.04 16.20L110.36 16.20L110.36 17.15L111.43 17.15C112.52 17.15 112.94 16.76 113.27 15.93L116.86 7.13L115.74 7.13ZM124.81 14.35L124.81 13.40L120.01 13.40L124.67 8.20L124.67 7.13L118.94 7.13L118.94 8.08L123.45 8.08L118.79 13.27L118.79 14.35ZM133.70 14.35L133.70 13.37L132.69 13.37L132.69 9.39C132.69 7.87 131.61 6.96 129.92 6.96C128.45 6.96 127.53 7.66 127.16 8.41L127.92 8.97C128.30 8.32 128.88 7.91 129.85 7.91C130.94 7.91 131.57 8.46 131.57 9.51L131.57 10.22L130.03 10.22C127.86 10.22 126.92 10.99 126.92 12.32C126.92 13.68 127.89 14.52 129.40 14.52C130.58 14.52 131.26 14 131.57 13.17L131.64 13.17C131.73 13.85 132.06 14.35 132.93 14.35ZM129.60 13.58C128.67 13.58 128.10 13.19 128.10 12.45L128.10 12.15C128.10 11.45 128.70 11.06 130.03 11.06L131.57 11.06L131.57 12.25C131.57 12.99 130.75 13.58 129.60 13.58ZM138.85 14.52C140.29 14.52 141.20 13.80 141.62 12.84L140.83 12.29C140.46 13.08 139.83 13.55 138.87 13.55C137.51 13.55 136.78 12.63 136.78 11.35L136.78 10.12C136.78 8.85 137.52 7.92 138.84 7.92C139.73 7.92 140.35 8.36 140.62 9.10L141.51 8.62C141.11 7.64 140.24 6.96 138.84 6.96C136.79 6.96 135.58 8.44 135.58 10.74C135.58 13.02 136.78 14.52 138.85 14.52ZM144.23 17.15L147.25 17.15C148.34 17.15 148.85 16.46 148.85 15.50L148.85 7.13L144.10 7.13L144.10 8.08L147.73 8.08L147.73 16.20L144.23 16.20ZM148.29 5.53C148.93 5.53 149.17 5.22 149.17 4.82L149.17 4.59C149.17 4.19 148.93 3.88 148.29 3.88C147.64 3.88 147.41 4.19 147.41 4.59L147.41 4.82C147.41 5.22 147.64 5.53 148.29 5.53ZM158.90 14.35L158.90 13.37L157.89 13.37L157.89 9.39C157.89 7.87 156.81 6.96 155.12 6.96C153.65 6.96 152.73 7.66 152.36 8.41L153.12 8.97C153.50 8.32 154.08 7.91 155.05 7.91C156.14 7.91 156.77 8.46 156.77 9.51L156.77 10.22L155.23 10.22C153.06 10.22 152.12 10.99 152.12 12.32C152.12 13.68 153.09 14.52 154.60 14.52C155.78 14.52 156.46 14 156.77 13.17L156.84 13.17C156.93 13.85 157.26 14.35 158.13 14.35ZM154.80 13.58C153.87 13.58 153.30 13.19 153.30 12.45L153.30 12.15C153.30 11.45 153.90 11.06 155.23 11.06L156.77 11.06L156.77 12.25C156.77 12.99 155.95 13.58 154.80 13.58Z"></path></g><defs data-v-423bf9ae=""><linearGradient data-v-423bf9ae="" gradientTransform="rotate(25)" id="25e0a2bb-ee86-4aea-822e-afd27298a07a" x1="0%" y1="0%" x2="100%" y2="0%"><stop data-v-423bf9ae="" offset="0%" style="stop-color: rgb(146, 132, 219); stop-opacity: 1;"></stop><stop data-v-423bf9ae="" offset="100%" style="stop-color: rgb(39, 5, 199); stop-opacity: 1;"></stop></linearGradient></defs><g data-v-423bf9ae="" id="555f4d71-bbe9-4e10-a266-351190d63b75" transform="matrix(1.4224826097488403,0,0,1.4224826097488403,-8.461369514465332,0.9460935592651367)" stroke="none" fill="url(#25e0a2bb-ee86-4aea-822e-afd27298a07a)"><path d="M48.82 64.19a1.87 1.87 0 0 0-1.63 0l-10.37 5.73a1.71 1.71 0 0 0-.82 1.35v11.46a1.72 1.72 0 0 0 .82 1.36l10.37 5.73a1.87 1.87 0 0 0 1.63 0l10.36-5.73a1.71 1.71 0 0 0 .82-1.36V71.27a1.71 1.71 0 0 0-.82-1.36zM56 81.27l-8 4.42-8-4.42v-8.54l8-4.42 8 4.42z"></path><path d="M68 103.74l-2.59 1.47-.41.79v4a2 2 0 0 1-4 0v-5.73a2 2 0 0 1 1-1.74l4-2.27a2 2 0 0 1 2 3.48zM64 13a2 2 0 0 1 1.1-1.78l4-2a2 2 0 1 1 1.8 3.56L68 14.25V17a2 2 0 0 1-4 0zm51 68.47v6.86a3.19 3.19 0 0 1-1.27 2L87 105.13v-4.5a2.51 2.51 0 0 0-1.16-2l-14.68-8.36a2.63 2.63 0 0 0-2.32 0l-14.68 8.38a2.51 2.51 0 0 0-1.16 2v4.5L26.27 90.38a3.19 3.19 0 0 1-1.27-2V66.25l13.84-7.9a2.51 2.51 0 0 0 1.16-2V39.63a2.51 2.51 0 0 0-1.16-2l-4.42-2.53 21.79-12a2.13 2.13 0 0 0 .79.9l12 6.78a2 2 0 0 0 1 .22 1.93 1.93 0 0 0 1-.22L83 24a2.08 2.08 0 0 0 .75-.85L87 24.87l4.09-2.31L84 18.65v-10A2.07 2.07 0 0 0 83 7L71 .22A1.93 1.93 0 0 0 70 0a2 2 0 0 0-1 .22L57 7a2.09 2.09 0 0 0-1 1.62v10L30.35 32.8l-6.19-3.53a2.63 2.63 0 0 0-2.32 0L7.16 37.65a2.51 2.51 0 0 0-1.16 2v16.72a2.51 2.51 0 0 0 1.16 2L21 66.25v22.1a7 7 0 0 0 3.34 5.53L53 109.7v7.67a2.51 2.51 0 0 0 1.16 2l14.68 8.38a2.63 2.63 0 0 0 2.32 0l14.68-8.38a2.51 2.51 0 0 0 1.16-2v-7.67l28.66-15.82a7 7 0 0 0 3.34-5.53v-9.12zM21 42.74l-2.6 1.47-.4.79v4a2 2 0 0 1-4 0v-5.73a2 2 0 0 1 1-1.74l4-2.27a2 2 0 0 1 2 3.48z"></path><path d="M122.09 39.11L97.91 25.45a4.29 4.29 0 0 0-3.81 0L69.91 39.11A4.11 4.11 0 0 0 68 42.34v27.32a4.11 4.11 0 0 0 1.91 3.23l24.18 13.66a4.29 4.29 0 0 0 3.81 0l24.19-13.66a4.11 4.11 0 0 0 1.91-3.23V42.34a4.11 4.11 0 0 0-1.91-3.23zM94 43.73L85 49v9a2 2 0 0 1-4 0V47.8a2 2 0 0 1 1-1.73l10-5.8a2 2 0 0 1 2 3.46z"></path></g><!----></svg>